<?xml version="1.0" encoding="UTF-8"?>
<svg version="1.1" xmlns="http://www.w3.org/2000/svg" width="128" height="128">
<path d="M0 0 C12.50126201 10.326134 13.20595422 25.46201311 15.48510742 40.57006836 C15.88486028 43.21275623 16.29635146 45.85343658 16.70898438 48.49414062 C16.9694483 50.19390356 17.22923796 51.89376998 17.48828125 53.59375 C17.61011276 54.37305374 17.73194427 55.15235748 17.85746765 55.95527649 C18.52883105 60.46308085 18.98907572 64.81639278 18.6953125 69.38671875 C11.46768871 79.09883821 -2.56954899 81.08189384 -13.84765625 82.984375 C-20.40352953 83.72121373 -27.02768289 83.63035325 -33.6171875 83.63671875 C-34.34100616 83.63772583 -35.06482483 83.63873291 -35.81057739 83.63977051 C-89.10138622 83.59002003 -89.10138622 83.59002003 -97.3046875 75.38671875 C-98.78256978 57.0678524 -92.50984053 38.33640373 -80.76171875 24.25 C-63.03111643 3.89664024 -26.34582397 -18.44207678 0 0 Z " fill="#E6E6E8" transform="translate(102.3046875,37.61328125)"/>
<path d="M0 0 C12.50126201 10.326134 13.20595422 25.46201311 15.48510742 40.57006836 C15.88486028 43.21275623 16.29635146 45.85343658 16.70898438 48.49414062 C16.9694483 50.19390356 17.22923796 51.89376998 17.48828125 53.59375 C17.61011276 54.37305374 17.73194427 55.15235748 17.85746765 55.95527649 C18.52883105 60.46308085 18.98907572 64.81639278 18.6953125 69.38671875 C13.01726628 77.01659336 3.57480166 79.40895235 -5.3046875 81.38671875 C-6.944375 81.78890625 -6.944375 81.78890625 -8.6171875 82.19921875 C-12.79398825 80.93646504 -13.97097122 77.75838136 -16.0078125 74.0625 C-18.36591178 69.19714455 -19.5589256 65.59274581 -19.5703125 60.125 C-19.57289062 58.92294922 -19.57546875 57.72089844 -19.578125 56.48242188 C-19.57039063 55.23396484 -19.56265625 53.98550781 -19.5546875 52.69921875 C-19.56242187 51.47009766 -19.57015625 50.24097656 -19.578125 48.97460938 C-19.56462554 42.64673569 -19.17930784 36.82513313 -17.76757812 30.65893555 C-17.01949017 26.98675486 -16.9365695 23.37364572 -16.9296875 19.63671875 C-16.89294922 18.56357422 -16.89294922 18.56357422 -16.85546875 17.46875 C-16.82687655 12.27450046 -18.02287342 9.36921212 -21.3046875 5.38671875 C-23.81833506 3.56052788 -23.81833506 3.56052788 -26.3046875 2.38671875 C-26.9646875 2.05671875 -27.6246875 1.72671875 -28.3046875 1.38671875 C-29.89916214 1.30271346 -31.49709295 1.27944408 -33.09375 1.2890625 C-34.50527344 1.29389648 -34.50527344 1.29389648 -35.9453125 1.29882812 C-37.42257813 1.31139648 -37.42257813 1.31139648 -38.9296875 1.32421875 C-40.41855469 1.33098633 -40.41855469 1.33098633 -41.9375 1.33789062 C-44.3932891 1.3496973 -46.84895854 1.36616475 -49.3046875 1.38671875 C-36.71171282 -8.55331325 -12.98863918 -9.09204742 0 0 Z " fill="#55899B" transform="translate(102.3046875,37.61328125)"/>
<path d="M0 0 C3.58058978 2.89494493 5.73408098 5.09424705 6.375 9.6875 C5.86773295 14.16835897 3.99191752 16.71322684 1 20 C-1.95932551 22.34705126 -5.21614797 22.4903099 -8.9609375 22.37109375 C-12.90530704 21.65324872 -14.42466578 20.09040106 -17 17 C-17.77831029 12.09664518 -17.55805518 10.09544164 -15.3125 5.6875 C-11.01096214 0.68841546 -6.57039552 -1.46008789 0 0 Z " fill="#2F1635" transform="translate(105,76)"/>
<path d="M0 0 C1.98 0.495 1.98 0.495 4 1 C4 4.3 4 7.6 4 11 C5.299375 10.71125 6.59875 10.4225 7.9375 10.125 C13.31775381 9.46741342 16.14558099 11.49899154 20.34765625 14.65234375 C20.89292969 15.09707031 21.43820313 15.54179688 22 16 C22.38671875 15.278125 22.7734375 14.55625 23.171875 13.8125 C23.69265625 12.884375 24.2134375 11.95625 24.75 11 C25.26046875 10.071875 25.7709375 9.14375 26.296875 8.1875 C26.85890625 7.465625 27.4209375 6.74375 28 6 C29.32 6 30.64 6 32 6 C32 10.52071987 31.05157605 12.34912344 28.875 16.25 C28.29492188 17.32765625 27.71484375 18.4053125 27.1171875 19.515625 C25 22 25 22 21.95703125 22.55078125 C18.69059515 21.94236977 17.9083034 21.40414261 15.8125 18.9375 C13.45004037 16.66508928 12.50940617 16.01904982 9.1796875 15.89453125 C7.23039447 16.12610523 5.28672029 16.41400403 3.35546875 16.765625 C2.57816406 16.84296875 1.80085938 16.9203125 1 17 C-1 15 -1 15 -1.23046875 11.77734375 C-1.20919922 9.87662109 -1.20919922 9.87662109 -1.1875 7.9375 C-1.18105469 6.66777344 -1.17460937 5.39804688 -1.16796875 4.08984375 C-1 1 -1 1 0 0 Z " fill="#352436" transform="translate(29,59)"/>
<path d="M0 0 C0.66 0.99 1.32 1.98 2 3 C-1.63 3 -5.26 3 -9 3 C-6.03 3.495 -6.03 3.495 -3 4 C-3 4.33 -3 4.66 -3 5 C-11.415 5.495 -11.415 5.495 -20 6 C-14.38412295 1.78809221 -7.16816045 -1.07522407 0 0 Z " fill="#64949F" transform="translate(73,33)"/>
<path d="M0 0 C1.98 0.495 1.98 0.495 4 1 C4 4.3 4 7.6 4 11 C4.66 11.33 5.32 11.66 6 12 C5.01 12 4.02 12 3 12 C3 11.01 3 10.02 3 9 C2.34 9 1.68 9 1 9 C1 9.66 1 10.32 1 11 C0.34 11 -0.32 11 -1 11 C-1.02688151 9.35425434 -1.04634123 7.70838587 -1.0625 6.0625 C-1.07410156 5.14597656 -1.08570312 4.22945312 -1.09765625 3.28515625 C-1 1 -1 1 0 0 Z " fill="#463447" transform="translate(29,59)"/>
<path d="M0 0 C6.13407758 0.36804465 8.73906179 1.84298712 13 6 C13 6.33 13 6.66 13 7 C11.35 7 9.7 7 8 7 C7.67 7.66 7.34 8.32 7 9 C6.566875 8.54625 6.13375 8.0925 5.6875 7.625 C3.89201658 5.79975666 3.89201658 5.79975666 1 4 C1.66 3.67 2.32 3.34 3 3 C2.01 2.01 1.02 1.02 0 0 Z " fill="#3C2A39" transform="translate(37,69)"/>
<path d="M0 0 C2.64 0 5.28 0 8 0 C8 1.65 8 3.3 8 5 C3.48279689 5.36625971 3.48279689 5.36625971 1.1875 3.625 C0 2 0 2 0 0 Z " fill="#331628" transform="translate(45,76)"/>
<path d="M0 0 C0.33 0.66 0.66 1.32 1 2 C0.67 2.66 0.34 3.32 0 4 C-0.06996014 5.70702735 -0.08440154 7.41668003 -0.0625 9.125 C-0.04896484 10.49011719 -0.04896484 10.49011719 -0.03515625 11.8828125 C-0.02355469 12.58148438 -0.01195313 13.28015625 0 14 C-0.99 13.34 -1.98 12.68 -3 12 C-3.66666667 5.11111111 -3.66666667 5.11111111 -1.5 1.5 C-1.005 1.005 -0.51 0.51 0 0 Z " fill="#261D38" transform="translate(91,81)"/>
<path d="M0 0 C-0.66 1.98 -1.32 3.96 -2 6 C-2.99 6 -3.98 6 -5 6 C-5 5.01 -5 4.02 -5 3 C-5.66 2.67 -6.32 2.34 -7 2 C-4 0 -4 0 0 0 Z " fill="#34222F" transform="translate(57,74)"/>
<path d="M0 0 C-2.55068845 2.35448165 -3.71017358 2.98327924 -7.25 3.1875 C-8.1575 3.125625 -9.065 3.06375 -10 3 C-9.67 2.01 -9.34 1.02 -9 0 C-5.93109813 -1.53445094 -3.29905734 -0.54984289 0 0 Z " fill="#2A122B" transform="translate(42,71)"/>
<path d="M0 0 C1.32 0.33 2.64 0.66 4 1 C3.67 2.32 3.34 3.64 3 5 C2.34 5 1.68 5 1 5 C0.67 5.66 0.34 6.32 0 7 C0 4.69 0 2.38 0 0 Z " fill="#2D162C" transform="translate(29,59)"/>
<path d="M0 0 C0.598125 0.226875 1.19625 0.45375 1.8125 0.6875 C0.6678125 1.3371875 0.6678125 1.3371875 -0.5 2 C-2.76843768 3.42436785 -4.4074723 4.72010097 -6.1875 6.6875 C-5.78066505 4.32785727 -5.28935661 2.82815912 -3.875 0.875 C-2.1875 -0.3125 -2.1875 -0.3125 0 0 Z " fill="#5B7789" transform="translate(95.1875,76.3125)"/>
<path d="M0 0 C2.31 0.66 4.62 1.32 7 2 C3.91190305 3.76462683 2.76687864 4 -1 4 C-0.67 2.68 -0.34 1.36 0 0 Z " fill="#443145" transform="translate(31,72)"/>
</svg>
